<svg xmlns="http://www.w3.org/2000/svg" viewBox="0 0 131.46 214.52"><defs><style>.cls-1{fill:#fcdebf;}.cls-2{fill:#5ec2d6;}.cls-10,.cls-11,.cls-12,.cls-3{fill:none;stroke-miterlimit:10;}.cls-3{stroke:#b32a2b;}.cls-4{font-size:12.99px;font-family:Garamond-Bold, Garamond;font-weight:700;}.cls-5{letter-spacing:-0.02em;}.cls-6{letter-spacing:0em;}.cls-7{font-size:11.91px;}.cls-7,.cls-9{font-family:Optima;}.cls-8{letter-spacing:-0.04em;}.cls-9{font-size:10.82px;fill:#fff;}.cls-10{stroke:#927361;}.cls-11{stroke:#66acd5;}.cls-12{stroke:#997d73;}</style></defs><g id="Camada_1" data-name="Camada 1"><path class="cls-1" d="M8,31.54s12.67-2.81,11.75-15.66l2.13-.29a4.61,4.61,0,0,0,8.55-1.25L32.69,14a4.68,4.68,0,0,0,8.55-1.26l2.66-.41a4.56,4.56,0,0,0,8.46-1.23l2.32-.33A4.57,4.57,0,0,0,63.11,9.6l2.72-.4A4.63,4.63,0,0,0,74.4,8L77,7.6a4.57,4.57,0,0,0,4,2.47,4.63,4.63,0,0,0,4.32-3.49l2.55-.4a4.45,4.45,0,0,0,8.31-1.37l1.51-.23a15,15,0,0,0,5.22,8,15.06,15.06,0,0,0,10.24,3.09l26.23,177a14.92,14.92,0,0,0-8.25,4.8,15.24,15.24,0,0,0-3.56,10.81l-1,.16a4.67,4.67,0,0,0-9,1.28l-1.79.3a4.76,4.76,0,0,0-9.12,1.23l-1.94.34a4.93,4.93,0,0,0-9.43,1.25l-1.73.27a4.76,4.76,0,0,0-9.12,1.19l-1.91.31a4.69,4.69,0,0,0-9,1.2l-2.12.29a4.81,4.81,0,0,0-9.09,1.22l-2.07.33a4.69,4.69,0,0,0-9,1.18l-1.78.24a14.19,14.19,0,0,0-5.54-8.67,14.34,14.34,0,0,0-10.17-2.5Z" transform="translate(-7.97 -4.58)"/><polygon class="cls-2" points="43.35 83.95 50.5 133.37 43.35 130.06 37.49 135.25 30.28 85.52 37.53 88.92 43.35 83.95"/><path class="cls-3" d="M94.37,13.61S98.22,25,109.13,24.22l23.5,162.3s-8.93,2.18-10.31,14.08l-68.4,9.9s-4.66-11.9-15.53-10.89L15,38.28s12.57-4.52,10.64-14.72Z" transform="translate(-7.97 -4.58)"/><text class="cls-4" transform="translate(80.24 61.48) rotate(81.76)">O PRIMEI<tspan class="cls-5" x="61.97" y="0">R</tspan><tspan x="70.79" y="0">O </tspan><tspan x="-2.91" y="15.15">SOFRIMEN</tspan><tspan class="cls-5" x="68.26" y="15.15">T</tspan><tspan class="cls-6" x="76.94" y="15.15">O</tspan></text><text class="cls-7" transform="translate(50.78 69.33) rotate(81.76)">FRANZ KAFK<tspan class="cls-8" x="69.46" y="0">A</tspan></text><text class="cls-9" transform="translate(35.08 96.58) rotate(81.76)">QUIZ</text><line class="cls-10" x1="93.47" y1="40.13" x2="20.47" y2="50.71"/><line class="cls-10" x1="111.26" y1="161.48" x2="37.84" y2="172.12"/><path class="cls-11" d="M37.8,36.85l.57-4.68h0c.08,0,1.26.61,3.31,3.47h0c.08,0,3-.42,3.63-.37.35,0-3.16,3.2-3.22,3.25h0L42.35,41h0c-.13-.09-2.25-1.55-2.19-1.13l-3,3.24h0l1-3.88h0a13.62,13.62,0,0,1-1.91-.67,22.14,22.14,0,0,0-2.58,0h0c0-.08.51-1.1,4.2-1.64Z" transform="translate(-7.97 -4.58)"/><path class="cls-12" d="M55,29l2.27,8.14s-2.74,1.1-2.53,2.34c.37,2.21,13,2.87,15.36.66s2.12-5.76-.84-5.9c-.32,0-.76-2.11-1.13-4.23s-.67-4.35-.67-4.35S59.34,25.85,55,29Z" transform="translate(-7.97 -4.58)"/><path class="cls-12" d="M57.88,39.09a.29.29,0,0,0,.21.18c1.18.29,8.91,2,11.58-2.21.23-.2-.11-2.22-.54-2.25s-.7,3.69-11.53,2.3a.3.3,0,0,0-.31.4Z" transform="translate(-7.97 -4.58)"/><path class="cls-11" d="M84.55,30.08l.57-4.68h0c.08,0,1.26.61,3.31,3.47h0c.07,0,3-.42,3.63-.37.35,0-3.16,3.2-3.23,3.25h0l.26,2.41h0c-.13-.09-2.24-1.56-2.18-1.13l-3,3.24h0l1-3.88h0a14.25,14.25,0,0,1-1.92-.67,22,22,0,0,0-2.57,0h0c0-.08.51-1.1,4.2-1.64Z" transform="translate(-7.97 -4.58)"/><path class="cls-11" d="M60.26,190.79l1.87,4.32h0c.07-.06,1-.94,2.19-4.27h0c.08,0,3-.45,3.59-.68.33-.13-3.94-2.17-4-2.2h0l-.44-2.4h0c-.1.12-1.71,2.13-1.77,1.71L57.87,185h0l2,3.45h0a12.56,12.56,0,0,0-1.65,1.19,24.89,24.89,0,0,1-2.46.72h0c.06.07.81.91,4.5.38Z" transform="translate(-7.97 -4.58)"/><path class="cls-12" d="M79,193.45,78.83,185s-2.94-.27-3.09-1.52c-.27-2.23,11.65-6.44,14.54-5s3.67,4.93.87,5.89c-.31.09-.14,2.24.12,4.38s.59,4.36.59,4.36S84,195.23,79,193.45Z" transform="translate(-7.97 -4.58)"/><path class="cls-12" d="M78.88,183a.3.3,0,0,1,.14-.23c1-.62,8-4.46,11.74-1.17.28.13.53,2.15.12,2.31s-1.72-3.34-11.71,1.06a.29.29,0,0,1-.41-.29Z" transform="translate(-7.97 -4.58)"/><path class="cls-11" d="M107,184l1.87,4.32h0c.06-.06,1-.95,2.19-4.27h0c.07,0,3-.45,3.59-.68.32-.13-4-2.17-4-2.2h0l-.44-2.4h0c-.1.12-1.71,2.13-1.77,1.71l-3.81-2.26h0l2,3.45h0A13.54,13.54,0,0,0,105,182.9a21.9,21.9,0,0,1-2.47.73h0c.06.07.81.91,4.5.38Z" transform="translate(-7.97 -4.58)"/></g></svg>