<svg xmlns="http://www.w3.org/2000/svg" viewBox="0 0 163.89 148.59"><defs><style>.cls-1{fill:none;stroke:#9a7c73;stroke-miterlimit:10;stroke-width:5px;}</style></defs><g id="Camada_2" data-name="Camada 2"><g id="Camada_1-2" data-name="Camada 1"><path class="cls-1" d="M18.77,18.26l10,77.42s-26.5,6.44-26.24,18C3,134.44,117.55,157.2,142.05,140.07s27-49.88.11-55c-2.9-.42-4.17-20.27-4.71-40.2-.55-20.28-.35-40.64-.35-40.64S62.79-4.73,18.77,18.26Z"/><path class="cls-1" d="M31.91,114.41a2.71,2.71,0,0,0,1.63,1.94c10.38,4.21,78.82,30.14,108.84-4.89,2.39-1.52,2-20.38-1.95-21.25S129.16,123,32,96a2.71,2.71,0,0,0-3.38,3.19Z"/></g></g></svg>