<svg xmlns="http://www.w3.org/2000/svg" viewBox="0 0 116.65 102.93"><defs><style>.cls-1{fill:none;stroke:#65acd5;stroke-miterlimit:10;stroke-width:5px;}</style></defs><g id="Camada_2" data-name="Camada 2"><g id="Camada_1-2" data-name="Camada 1"><path class="cls-1" d="M43.12,44.53l11.4-42a0,0,0,0,1,0,0c.67.43,10.75,7.22,25.69,36.1,0,0,0,0,0,0,.67,0,27.82.11,33.67,1.44,3.15.72-33.19,25-33.82,25.44,0,0,0,0,0,0L79.26,88s0,0-.06,0c-1.06-1-18.45-17.18-18.45-13.26L28.9,100.42s-.07,0,0,0L42.66,66.13a0,0,0,0,0,0,0c-.79-.36-17.31-7.95-16.6-8.66S3.72,54.15,2.53,54a0,0,0,0,1,0-.05c.39-.68,6.14-9.41,40.57-9.42Z"/></g></g></svg>