<svg id="Camada_1" data-name="Camada 1" xmlns="http://www.w3.org/2000/svg" viewBox="0 0 1038.85 763.4"><defs><style>.cls-1{fill:#e4564d;}</style></defs><path class="cls-1" d="M836.51,128.29c6.18,34.63,15.56,68.73,26.8,102,11.1,32.94,24.76,64.19,42.33,94.2a1006.37,1006.37,0,0,0,64.16,95.54c18.35,24.41,37.51,48.34,58.16,70.85,11.81,12.87,24.56,24.89,36.67,37.49,19,19.81,38,39.7,57.3,59.23,19.47,19.69,39.16,39.36,60.34,57.24,15.94,13.45,33.35,24.53,51.3,35.09,45,26.52,91.69,50.38,138.35,73.9q19.23,9.69,38.55,19.18c.34.17,2.74,1.41,1.29.65,7.65,4,15.34,8.66,21.65,14.63,11.63,11,17.11,26,12.81,41.77-4,14.68-15,27.54-27.9,35.3-15.59,9.38-33.84,10.13-51.41,6.86-20.71-3.85-40.2-12.38-59.36-20.88q-29.54-13.11-59-26.39c-78.68-35.31-157.32-70.78-237.44-102.74-79.7-31.78-161-60-244.21-81a1372.34,1372.34,0,0,0-263-39.49Q471.45,600.1,439,600c-3.52,0-9.95.95-10.23,5.55-.27,4.42,6.51,6.33,9.76,6.35A1344.6,1344.6,0,0,1,705.6,639.79c85,17.64,167.87,43.85,249,74.47,81,30.55,160.21,65.4,239.17,100.74,39.61,17.74,78.94,36.3,119,53.06,36.35,15.22,82.12,28.29,118.76,6.68,27-15.91,47.68-50.77,28.69-80.44-10.81-16.9-29-26-46.4-34.65-41.11-20.29-81.55-40.92-121.94-62.87-21.84-11.87-43.63-24-64.59-37.33-18.36-11.7-34.6-25.6-50.44-40.48-38.37-36-73.62-75.08-110.72-112.37-40.14-40.34-75.46-85-107.63-132-20.7-30.21-40.91-61.63-55.91-95.14-14.82-33.12-26.06-68-35.34-103-4.15-15.65-7.89-31.43-10.73-47.37-.81-4.5-5.59-6.18-9.76-6.34-2.58-.1-11,1.14-10.23,5.55Z" transform="translate(-428.71 -122.73)"/></svg>