<svg id="Camada_1" data-name="Camada 1" xmlns="http://www.w3.org/2000/svg" viewBox="0 0 591.87 1090.06"><defs><style>.cls-1{fill:#e4574d;}</style></defs><path class="cls-1" d="M601.55,2.66c-17.76,39.06-59.95,59-83.7,93.79-26,38-30.06,87.38-23.26,131.83,12.65,82.54,65.48,158.17,139.68,197,44,23,93.47,31.88,141.38,42.84,47,10.74,92.2,25.08,132.54,52.15,79.39,53.26,130.17,139.52,148.79,232.33,19.92,99.27,4.48,205.12-40,295.77q-8.26,16.82-17.83,32.93c-2.32,3.92,3.59,3.76,5.75,3.27,4.26-1,9.18-3.75,11.46-7.62,51.41-86.89,75.13-190.12,64.87-290.7-9.74-95.48-50.65-187.15-123.42-251-34.72-30.47-75.17-52.47-119.32-65.89-48.1-14.61-98.37-21.09-146-37.21-42-14.21-79.92-37.26-110.26-69.8a273.22,273.22,0,0,1-62-108.07c-12.49-42.08-15.61-90.44-.39-132.25,7.64-21,20.27-38.28,36.37-53.53,15.43-14.61,32.33-27.85,46-44.23a114.84,114.84,0,0,0,16.61-25.9c1.81-4-3.21-3.86-5.75-3.27-3.86.89-9.7,3.72-11.46,7.61Z" transform="translate(-491.68 5.26)"/></svg>