<svg id="Camada_1" data-name="Camada 1" xmlns="http://www.w3.org/2000/svg" viewBox="0 0 410.69 1153.47"><defs><style>.cls-1{fill:#e4574d;}</style></defs><path class="cls-1" d="M1051.34-28.61a696.16,696.16,0,0,1,4.4,100c-.69,22.83-2.72,45.66-4.68,68.42-2.15,25-5.55,49.77-10,74.47-3.34,18.49-7.12,37-12.51,55-9,30.2-17.66,60.53-26.63,90.76-3.13,10.56-7.29,20.76-11.29,31-7.38,19-14.87,37.88-22.33,56.81-7.95,20.17-16,40-25.3,59.58C936.57,521,931.34,535.09,925.8,549c-5.73,14.41-11.38,28.87-16.29,43.58-9.33,28-16.09,57.32-15.54,87,.58,31.35,8.84,61.74,22.52,89.81,12.79,26.24,29.7,49.94,49.56,71.3,9.78,10.52,20.31,20,31,29.57,9,8,17.42,16.36,26.68,24,27.57,22.85,56.57,44.12,84.79,66.16q48.29,37.74,96.49,75.6l31,24.3c9.55,7.48,16.79,14.42,26,22.65,5.52,4.94,10.74,10.06,15.78,15.5,4.11,4.43,9.33,8.18,12.83,13.1,2.38,3.36,7.16,7.18,11.4,4.54,4-2.52,2.83-9,.54-12.26-3.93-5.55-8.86-9.86-13.61-14.65-5.6-5.63-10.87-11.44-16.79-16.78-7.51-6.78-14.79-14.21-22.69-20.51-6.44-5.14-13-10.16-19.45-15.24q-43.24-33.93-86.5-67.83-46.71-36.58-93.6-73c-13.78-10.65-26.94-21.6-39.69-33.47-10.56-9.84-21.53-19-31.55-29.47A294.18,294.18,0,0,1,951,799.88c-16.33-23-30.41-49.73-36.16-77.5a201.63,201.63,0,0,1,1.66-90.18c7-28.82,18.27-56.34,29.22-83.83C955.3,524.26,967,501.14,976.43,477c12.88-32.91,27-65.54,38.6-98.93,9.52-27.4,16.46-55.91,24.65-83.73,3.4-11.55,6.9-22.89,9.53-34.63,6.46-28.85,12.19-58.19,15.49-87.59,5.57-49.66,9.13-100,6.53-149.93q-1.27-24.54-4.09-49c-1.13-9.92-17.28-14.79-15.8-1.8Z" transform="translate(-893.94 36.48)"/></svg>