<svg id="Camada_1" data-name="Camada 1" xmlns="http://www.w3.org/2000/svg" viewBox="0 0 384.71 514.3"><defs><style>.cls-1{fill:#e4574d;}</style></defs><path class="cls-1" d="M868.5-25.25c-31.09,26.83-52,62.58-67.06,100.39-15.14,38.13-25,78.08-36.62,117.22-13.11,43.93-29.34,87.19-51.75,127.29a383.31,383.31,0,0,1-37.8,56q-9.85,12.06-20.82,23.15c1.21-1.23-.64.64-.72.72l-1.14,1.12-2.87,2.78q-2.9,2.76-5.85,5.44-5.91,5.37-12.1,10.43-6,4.92-12.31,9.53c-.43.32-3.26,2.34-1.56,1.14-1.09.77-2.17,1.54-3.26,2.29-2.19,1.51-4.39,3-6.62,4.43q-6.66,4.33-13.56,8.27-3.11,1.77-6.25,3.45l-2.1,1.12c-.43.22-1.74.92.26-.13-1.4.73-2.83,1.43-4.25,2.13q-6.74,3.3-13.67,6.2c-2.43,1-4.87,2-7.33,2.92-1.11.42-2.22.84-3.33,1.24-.62.22-1.23.47-1.86.67,2.5-.8-.09,0-.46.15q-7.47,2.54-15.1,4.55c-2.29.61-4.58,1.18-6.89,1.71-1.28.29-2.57.58-3.86.85l-1.93.4-1.16.23c1-.18,1.13-.21.46-.09-5.08.91-10.15,1.71-15.28,2.3-4.27.5-10,2.92-11.83,7.11s2.89,5.47,6.09,5.1c43.82-5.07,85.63-22.75,121.41-48.28,36.82-26.27,67-59.94,91.18-98,24.88-39.18,43-82.29,57.37-126.32,13.1-40.14,22.64-81.15,36.68-121,6.78-19.23,14.59-38.15,24.4-56a214.77,214.77,0,0,1,15.15-24.12,199.31,199.31,0,0,1,19-22.68c.13-.14,1.91-1.9.59-.61l1.08-1.06c.91-.88,1.82-1.75,2.75-2.62,1.86-1.74,3.76-3.43,5.68-5.09,2.43-2.1,4.78-6.41.5-7.93s-10.13,1-13.3,3.69Z" transform="translate(-499.46 29.4)"/></svg>