<svg id="Camada_1" data-name="Camada 1" xmlns="http://www.w3.org/2000/svg" viewBox="0 0 668.88 1111.55"><defs><style>.cls-1{fill:#e4574d;}</style></defs><path class="cls-1" d="M906.46-19.23c-3,61.08,2.84,122.54-5.48,183.34-3.94,28.79-10.77,57.56-22.71,84.15-11.35,25.28-29,44.22-53.8,56.75-25,12.66-52.6,19.6-79.68,26.37a861.38,861.38,0,0,1-87.29,17.36,788.31,788.31,0,0,1-90.65,7.73c-30.67.79-61.34-.64-92-.1-28.9.5-58.08,3.08-85.73,12a201.11,201.11,0,0,0-67.6,37.4,205.25,205.25,0,0,0-49.2,60.8c-12.44,23.46-21.19,50.8-17.3,77.59,7.73,53.14,59.29,84.9,103,107.1C384.81,664.82,412.25,677,439.29,690,464,701.81,488.56,714.5,510,731.75,597.87,802.52,638.49,928.69,614.36,1038a283.13,283.13,0,0,1-12.48,41.08c-1.94,5,15,14.63,16.13,11.82,41.4-107.08,14.57-233.21-59-319.87a308.54,308.54,0,0,0-61.56-55.9c-23.91-16.25-49.77-29-75.88-41.32-26.44-12.44-53.18-24.36-79-38.11-21.89-11.66-43.88-25.58-57.77-46.69-31.22-47.42-5.2-107.31,27.71-146.39a200.15,200.15,0,0,1,61.74-49.45c24.68-12.59,51.59-19.29,79.06-22.12,29.89-3.08,60-2,90-1.74a867.19,867.19,0,0,0,92.17-3.54,801.9,801.9,0,0,0,88.82-13.61c28-5.92,56.26-12.57,83.44-21.66,25-8.36,50.55-20,68.1-40.3,18.28-21.16,27.6-50,34.15-76.67C924.3,155.48,922,95.81,922,36.54c0-15.23.22-30.45,1-45.66.24-5.05-16.32-13.85-16.51-10.11Z" transform="translate(-254.09 20.13)"/></svg>