<svg id="Camada_1" data-name="Camada 1" xmlns="http://www.w3.org/2000/svg" viewBox="0 0 376.26 740"><defs><style>.cls-1{fill:#e4574d;}</style></defs><path class="cls-1" d="M1186.24,368.38c22.71,10.25,39.3,30.44,51,52.14,13.3,24.61,18.86,53,21.62,80.56,3,30.53,2.69,61.65-2.91,91.88-5,27.2-13.93,54.4-29.71,77.36-15.11,22-36.29,38.68-58.08,53.26-25.51,17.07-52,32.65-77.53,49.66-49.56,33-98.6,70.33-134,118.82-16.9,23.13-29.44,49.5-37.82,76.86-9,29.5-12.71,60.49-14,91.23-.32,7.88-.49,15.77-.57,23.66-.11,11.73,19.66,9.56,19.77-1.47.32-31.2,2.06-62.56,9.2-93a250.55,250.55,0,0,1,32.67-78.38c15.74-24.53,36.23-45.74,57.89-65.1,22.19-19.85,46.1-37.55,70.76-54.19,26-17.53,53-33.5,79.11-50.75,23.75-15.65,46.36-32.94,64-55.45,17.85-22.73,28.83-50.72,35.18-78.73a327.22,327.22,0,0,0,7-92.32c-1.84-29.82-6.27-60.4-17.92-88.1-10.27-24.43-26.2-48.1-48.07-63.58A107.48,107.48,0,0,0,1196,352.49c-4.65-2.1-10.84,0-13.48,4.27a8,8,0,0,0,3.69,11.62Z" transform="translate(-904.27 -351.66)"/></svg>