<svg id="Camada_1" data-name="Camada 1" xmlns="http://www.w3.org/2000/svg" viewBox="0 0 326.21 412.21"><defs><style>.cls-1{fill:#e4574d;}</style></defs><path class="cls-1" d="M361.25,476.78c-19,7.51-33.1,25.89-36.17,46-2.16,14.1,1.14,27.93,8.49,40.09,3.4,5.61,7.88,10.86,13.57,14.23a43.89,43.89,0,0,0,14.62,5.33c11.61,2.13,23.73,1.46,35.47,1.56l42.06.34c26,.22,52.11-.36,78,1.64,23.51,1.81,47.84,6.47,68.27,18.23a105.93,105.93,0,0,1,12,8.12q2.91,2.25,5.66,4.69l1.22,1.09.8.73c-.07-.06-.74-.7-.22-.19.91.89,1.83,1.76,2.72,2.66,1.65,1.68,3.26,3.41,4.81,5.18l1.24,1.44.53.63c.58.68-.45-.54-.45-.54.68,1,1.61,2,2.37,3s1.43,1.89,2.13,2.84l1,1.33c1.2,1.7-.82-1.22,0,.05,1.37,2,2.71,4.11,4,6.22,1.16,1.93-.93-1.64-.09-.16l.81,1.43c.63,1.12,1.24,2.25,1.84,3.38l.76,1.47.37.74c.58,1.14-1-2.06-.45-.9s1,2.15,1.54,3.24,1,2.19,1.45,3.29c.25.59.45,1.23.75,1.79,0,.06-.76-1.9-.38-1,.13.35.27.69.41,1q1.36,3.5,2.56,7.05c.35,1,.59,2.17,1,3.17-.81-1.88,0-.11.13.43s.36,1.24.53,1.87q1,3.63,1.85,7.3c.56,2.45,1.06,4.92,1.5,7.39a3.7,3.7,0,0,1,.1.58c.09.55.18,1.1.26,1.66q.3,1.93.54,3.87a155,155,0,0,1-4.46,60.48c-5.79,21.41-15.51,41.62-27.73,60.08a278.66,278.66,0,0,1-43.79,50.65c-4,3.7-8.13,7.29-12.32,10.79-.9.74-.42,2.59-.23,3.45a27,27,0,0,0,2.69,6.58c.53,1,5.16,9.14,7,7.57a301.34,301.34,0,0,0,46.68-48.24c13.51-17.69,24.9-37.1,32.69-58a164.4,164.4,0,0,0-2.26-124.74c-8.51-20.56-21.09-39.79-37.41-55S563.41,578,541.9,573.06c-23.86-5.5-48.55-5.84-72.92-6l-84-.69c-11.26-.09-22.93.5-34-2.11A33,33,0,0,1,338,558.48q-.78-.6-1.5-1.26c.81.73-.12-.18-.4-.46-.12-.13-.81-.83-.12-.1s-.15-.22-.32-.43c-.67-.78.43.65.44.67-.76-1.15.12.24.35.65-.91-1.66,1,1.73,0,.1-.81-1.37.16.11.16.44a3.91,3.91,0,0,0-.33-.9c-.11-.31-.21-.62-.31-.92,0,.09.33,1.3.14.42s-.43-1.67-.6-2.52c-.07-.32-.13-.64-.19-1,0,.14.12.75,0,0s-.17-1.29-.24-1.93c-.14-1.42-.23-2.84-.26-4.27a44.07,44.07,0,0,1,.43-7.08,57.06,57.06,0,0,1,4-14.56,58.35,58.35,0,0,1,18.46-23.76,55.34,55.34,0,0,1,12.93-7.25c1-.39.32-3,.22-3.45a33,33,0,0,0-6.71-12.45c-.68-.68-1.89-2.15-3-1.7Z" transform="translate(-324.43 -476.7)"/></svg>