<svg id="Camada_1" data-name="Camada 1" xmlns="http://www.w3.org/2000/svg" viewBox="0 0 1039.01 285.82"><defs><style>.cls-1{fill:none;stroke:#e4574d;stroke-miterlimit:10;stroke-width:15px;}.cls-2{fill:#e4574d;}</style></defs><path class="cls-1" d="M937.15-6.66" transform="translate(-508.37 -474.46)"/><path class="cls-2" d="M1490,647.45c13.69,7.26,28.14,16.25,34.4,31.14,5.22,12.4,3,26-3.42,37.56a65.19,65.19,0,0,1-31.2,28c-15.27,6.44-33,5.06-48.75,1.5-18.7-4.21-36.41-12-53.86-19.75q-26.51-11.76-52.93-23.66c-35.6-16-71.17-32-106.88-47.72-70.71-31.16-142-61.23-214.68-87.43-73.32-26.43-148.2-48.95-224.59-64.63a1369.43,1369.43,0,0,0-240-27.52q-14.76-.39-29.53-.44c-3.52,0-9.94,1-10.22,5.56-.28,4.42,6.51,6.33,9.75,6.34A1342.8,1342.8,0,0,1,764,510.05c78.67,15,155.67,37.44,231.07,64.31,75.19,26.8,148.8,57.82,221.82,90,36.28,16,72.44,32.27,108.61,48.5,18.2,8.17,36.39,16.36,54.65,24.42s37.21,15.81,57,20c34.15,7.26,72.19,2.37,95.39-26.14,8.94-11,15.46-24.71,14.81-39.18-.74-16.21-10.11-29.38-22.37-39.31a126.06,126.06,0,0,0-20.46-13.06c-4.18-2.21-9.83-3.05-14.13-.55-3.39,2-4.33,6.29-.33,8.41Z" transform="translate(-508.37 -474.46)"/></svg>