<svg id="Camada_1" data-name="Camada 1" xmlns="http://www.w3.org/2000/svg" viewBox="0 0 292.52 1093.96"><defs><style>.cls-1{fill:#e4574d;}</style></defs><path class="cls-1" d="M1001.25,2.73A2426.18,2426.18,0,0,0,886,219.26c-34.64,74.12-64.22,150.05-91.51,227.15-13,36.65-21.84,75.26-14.53,114.17,6.71,35.7,25.29,67.83,47,96.45,23.25,30.65,50.26,58.27,76.43,86.38,13.51,14.5,27,29,39,44.78a468.65,468.65,0,0,1,31.89,47.9c9.82,16.85,18.57,34.26,27,51.84a80.3,80.3,0,0,1,4.2,11.88c1.41,4.62,4.07,9.06,5.94,13.52,3.78,9,7.07,18.28,10.15,27.58A697.88,697.88,0,0,1,1049,1057.49c1.45,9.69,2.79,19.4,3.53,29.18.15,1.92,9.12-2.67,9.8-3.06,2.1-1.23,7.69-4,7.46-7-3-39.4-11.5-79.07-22.2-117-5.36-19-11.32-38-18.94-56.28-1.78-4.26-4.19-8.41-5.71-12.76s-2.41-8.44-4.43-12.65c-4.21-8.79-8.47-17.57-12.95-26.23C987.94,817.41,967,784.89,941.5,756c-25.72-29.08-53.4-56.39-78.59-85.95-23.74-27.87-45.85-58.19-58.36-92.92-13.16-36.55-12.19-75.53-1.59-112.64,5.4-18.93,12.49-37.44,19.07-56q10.29-29.06,21.42-57.82,22.15-57.29,47.46-113.27a2381.38,2381.38,0,0,1,112-216.9Q1010.62,7.24,1018.51-6c1.43-2.38-7.16.93-7.46,1.08-3.54,1.78-7.7,4.1-9.8,7.61Z" transform="translate(-777.32 6.82)"/></svg>