<svg id="Camada_1" data-name="Camada 1" xmlns="http://www.w3.org/2000/svg" viewBox="0 0 165.6 299.95"><defs><style>.cls-1{fill:#e4574d;}</style></defs><path class="cls-1" d="M1474.18,697.31a269.12,269.12,0,0,1,25.29,12.13c1,.58,2,1.17,3.07,1.78l1.32.81c.19.12,1.46,1.11,1.68,1.05,0,0-1.89-1.24-.75-.48l.73.49c.43.28.85.57,1.27.86q1.44,1,2.85,2c1.85,1.38,3.66,2.84,5.39,4.37.81.72,1.6,1.45,2.38,2.2.42.4,1.74,1.83.16.13.39.42.8.83,1.19,1.25a60.52,60.52,0,0,1,9.13,12.92l-.78-1.51a67.93,67.93,0,0,1,7,26.1l-.12-1.56c1.29,18.49-2.77,37.08-7.27,54.9a117.48,117.48,0,0,1-4.81,15.26l.59-1.45A53.91,53.91,0,0,1,1511,846.29l1.21-1.2a54.45,54.45,0,0,1-7.07,5.88q-1.89,1.32-3.87,2.49c-.55.33-1.1.65-1.67,1l-1,.56c-1.15.63,1.79-.91,0,0a119,119,0,0,1-17.33,6.86c-12.36,4-25.09,6.84-37.17,11.66a89.61,89.61,0,0,0-34.83,24.37,87.2,87.2,0,0,0-18.93,37,76.94,76.94,0,0,0-1.78,24.15c.72,8.59,3.45,17.26,9.21,23.84A14.47,14.47,0,0,0,1411,987c1.76-.37,4.12-1,5.07-2.67a3.84,3.84,0,0,0-.31-4.52,31.77,31.77,0,0,1-4.1-6l.79,1.51a44,44,0,0,1-4.37-16.8l.12,1.56a77.58,77.58,0,0,1,5.71-34l-.59,1.45A84.92,84.92,0,0,1,1432,899.48l-1.21,1.2A80,80,0,0,1,1442,891.4c2-1.36,4.09-2.64,6.22-3.81.25-.13.51-.26.76-.41-.07,0-1.66.85-.61.32l1.44-.71c1.08-.53,2.17-1,3.28-1.53,8.37-3.7,17.18-6.27,26-8.79,17.33-5,36.08-10,49.32-23a53.35,53.35,0,0,0,9.76-12.7,85.5,85.5,0,0,0,6.55-16.45,262.88,262.88,0,0,0,7.22-32c3.58-21.72,3.38-45.1-9.3-64-11.72-17.48-31.32-27.85-50-36.23q-3.43-1.53-6.89-3a18.46,18.46,0,0,0-7.52-1.76c-1.91,0-4.75.38-6.32,1.67-1.24,1-2.28,2.49-1.68,4.21a7.53,7.53,0,0,0,4,4.1Z" transform="translate(-1388.3 -687.33)"/></svg>