<svg id="Camada_1" data-name="Camada 1" xmlns="http://www.w3.org/2000/svg" viewBox="0 0 643.19 603.49"><defs><style>.cls-1{fill:none;stroke:#e4574d;stroke-miterlimit:10;stroke-width:15px;}.cls-2{fill:#e4574d;}</style></defs><path class="cls-1" d="M937.15-6.66" transform="translate(-307.34 -484.38)"/><path class="cls-2" d="M356.52,486.09c-16.81,9.72-33.17,21.52-42.74,38.87-7.71,14-9.16,33-.68,47,10.55,17.44,31.44,18.73,49.76,18.47q33.86-.5,67.72-1.06l135.29-2.11,67.34-1c21.66-.34,43.36-.75,65,.88a271.2,271.2,0,0,1,31.75,4.17A199.45,199.45,0,0,1,752.15,597,235.87,235.87,0,0,1,797,616.57c27.08,15.31,53,37.69,72.77,62a277.47,277.47,0,0,1,47.63,86c10.25,30.48,14.38,64,14.44,96.49a427.25,427.25,0,0,1-13,103c-8.16,32.88-19.94,64.63-36.77,94.57q-2.77,4.92-5.71,9.72l-.9,1.46-.3.48c.29-.44-1,1.56-1.22,1.91-1.07,1.66-2.16,3.3-3.27,4.94-2.3,3.41-3.06,8.31,1.59,10.15,4.28,1.7,10.64-.75,13.16-4.49,19.11-28.33,33.17-59.5,43.67-91.95a441,441,0,0,0,20.17-103.14c2.51-34,1.37-68.47-5.79-101.82A278.41,278.41,0,0,0,906.13,695a282.37,282.37,0,0,0-66.55-72.83c-26-19.84-55.91-35.08-87.67-43.24-41.63-10.69-84.78-8.76-127.37-8.09L489.85,573l-67.34,1-34,.53-17,.26c-2.49,0-4.2.08-6,.09-2.48,0-5,0-7.44-.11-8.19-.36-16.18-1.44-22.66-6.86-5.19-4.34-8-10.65-9-17.46a31.92,31.92,0,0,1-.07-9.94,45.81,45.81,0,0,1,1.13-5.69c.08-.3.66-2.23.3-1.15.35-1,.76-2.06,1.2-3.06,3.23-7.46,8.46-13.46,14.2-18.43,1.58-1.38,3.21-2.69,4.88-4,.9-.68,1.82-1.35,2.73-2a6.4,6.4,0,0,1,1-.7c3.76-2.53,7.62-4.89,11.55-7.16,3.48-2,7.67-6.77,5.27-11s-8.73-3.23-12.16-1.24Z" transform="translate(-307.34 -484.38)"/></svg>