<svg id="Camada_1" data-name="Camada 1" xmlns="http://www.w3.org/2000/svg" viewBox="0 0 626.62 724.11"><defs><style>.cls-1{fill:#e4574d;}</style></defs><path class="cls-1" d="M870.51-33.1C837.57,26,825.71,96.17,835.35,163a314.44,314.44,0,0,0,30.38,97.29c8.08,15.95,17.57,31.28,27,46.42a486.77,486.77,0,0,0,32.15,46.13c11.2,14,23.49,27.2,35.77,40.27,10.68,11.38,21.61,22.53,32.89,33.32,22.79,21.79,46.76,42.38,70.94,62.6,25.33,21.19,51.38,41.53,78.41,60.53,26.67,18.75,54.45,36.54,84.26,49.94,32.1,14.43,66.28,24.1,99.71,34.9,33.75,10.9,67.49,22.47,98.85,39.24q11.82,6.33,23.09,13.63c3.52,2.27,8.72,1.36,9.69-3.12,1.07-5-2.69-9.75-6.56-12.26-60.37-39.15-131.67-54.31-198.45-78.62-59.32-21.59-112.32-60.48-161.7-100.24q-36.76-29.6-71.84-61.3-16-14.44-31.31-29.64c-5.54-5.54-10.31-10.46-14.84-15.25q-8.7-9.19-17.19-18.61a456.56,456.56,0,0,1-34.35-42c-10.23-14.44-19.26-29.16-28.44-44.64-8.64-14.6-16.81-29.33-23.33-45a297.09,297.09,0,0,1-14.28-45.17C841.67,128.44,847.88,60,874.65,1q4.94-10.86,10.76-21.28c2.36-4.24-.54-9.82-3.85-12.65-2.89-2.48-8.66-4.43-11-.15Z" transform="translate(-832.1 35.62)"/></svg>