<svg id="Camada_1" data-name="Camada 1" xmlns="http://www.w3.org/2000/svg" xmlns:xlink="http://www.w3.org/1999/xlink" viewBox="0 0 146.92 222.64"><defs><style>.cls-1{opacity:0.8;}.cls-10,.cls-11,.cls-2,.cls-9{fill:none;stroke-miterlimit:10;}.cls-2{stroke:#b32a2b;}.cls-3{font-size:12.99px;font-family:Garamond-Bold, Garamond;font-weight:700;}.cls-4{letter-spacing:-0.02em;}.cls-5{letter-spacing:0em;}.cls-6{font-size:11.91px;}.cls-6,.cls-8{font-family:Optima;}.cls-7{letter-spacing:-0.04em;}.cls-8{font-size:10.82px;fill:#fff;}.cls-9{stroke:#927362;}.cls-10{stroke:#65acd5;}.cls-11{stroke:#9a7c73;}</style></defs><image width="4079" height="2323" transform="translate(117.14) rotate(81.76) scale(0.05)" xlink:href="../../meta3/prancheta%20bilhete/pranchetaInicio/bilhete.png"/><image class="cls-1" width="829" height="217" transform="translate(59.82 88.04) rotate(81.76) scale(0.06)" xlink:href="../../meta3/prancheta%20bilhete/pranchetaInicio/Forma%204.png"/><path class="cls-2" d="M94,21s3.83,11.23,14.74,10.49L132,192.23s-8.93,2.17-10.33,14l-68.4,9.91s-4.65-11.78-15.52-10.77L14.62,45.54S27.2,41.05,25.27,31Z" transform="translate(0 -8.57)"/><text class="cls-3" transform="translate(93.38 65.88) rotate(81.76)">O PRIMEI<tspan class="cls-4" x="61.97" y="0">R</tspan><tspan x="70.79" y="0">O </tspan><tspan x="-2.91" y="15.15">SOFRIMEN</tspan><tspan class="cls-4" x="68.26" y="15.15">T</tspan><tspan class="cls-5" x="76.94" y="15.15">O</tspan></text><text class="cls-6" transform="translate(63.92 73.73) rotate(81.76)">FRANZ KAFK<tspan class="cls-7" x="69.46" y="0">A</tspan></text><text class="cls-8" transform="translate(51.59 100.98) rotate(81.76)">QUIZ</text><line class="cls-9" x1="101.05" y1="44.53" x2="28.06" y2="55.11"/><line class="cls-9" x1="118.84" y1="165.88" x2="45.42" y2="176.52"/><path class="cls-10" d="M37.42,45.24,38,40.56h0c.08,0,1.26.61,3.31,3.47h0c.07,0,3-.42,3.63-.37.35,0-3.17,3.2-3.23,3.25h0L42,49.33h0c-.13-.09-2.24-1.56-2.18-1.14l-3,3.25h0l1-3.88h0a11.93,11.93,0,0,1-1.92-.67c.07-.08-2.44,0-2.57,0h0c0-.08.51-1.1,4.2-1.64Z" transform="translate(0 -8.57)"/><path class="cls-11" d="M54.6,37.38l2.27,8.14s-2.74,1.1-2.53,2.33c.37,2.22,13,2.88,15.36.67s2.12-5.77-.84-5.9c-.32,0-.76-2.11-1.13-4.23S67.06,34,67.06,34,59,34.23,54.6,37.38Z" transform="translate(0 -8.57)"/><path class="cls-11" d="M57.5,47.48a.29.29,0,0,0,.21.18c1.17.29,8.91,2,11.58-2.21.23-.2-.11-2.22-.54-2.25s-.7,3.69-11.53,2.3a.3.3,0,0,0-.31.4Z" transform="translate(0 -8.57)"/><path class="cls-10" d="M84.17,38.47l.57-4.68h0c.08,0,1.26.61,3.31,3.47h0c.07,0,3-.42,3.63-.37.35,0-3.17,3.2-3.23,3.25h0l.26,2.42h0c-.13-.09-2.24-1.56-2.18-1.14l-3,3.25h0l.95-3.88h0a11.6,11.6,0,0,1-1.92-.67c.07-.08-2.44,0-2.57,0h0c0-.08.51-1.1,4.2-1.64Z" transform="translate(0 -8.57)"/><path class="cls-10" d="M59.88,199.18l1.87,4.32h0c.06-.05,1-.94,2.19-4.26h0c.07,0,3-.45,3.59-.68.32-.13-4-2.17-4-2.2h0l-.44-2.4h0c-.1.12-1.71,2.13-1.77,1.71l-3.81-2.26h0l2,3.45h0a13.39,13.39,0,0,0-1.64,1.18,21.9,21.9,0,0,1-2.47.73h0c.06.07.81.91,4.5.38Z" transform="translate(0 -8.57)"/><path class="cls-11" d="M78.58,201.84l-.13-8.45s-2.94-.27-3.09-1.52c-.27-2.23,11.65-6.44,14.54-5s3.67,4.92.86,5.89c-.3.09-.13,2.24.12,4.38s.6,4.36.6,4.36S83.65,203.62,78.58,201.84Z" transform="translate(0 -8.57)"/><path class="cls-11" d="M78.5,191.34a.26.26,0,0,1,.14-.23c1-.62,8-4.46,11.74-1.17.28.13.52,2.15.12,2.31s-1.72-3.34-11.71,1.06a.29.29,0,0,1-.41-.29Z" transform="translate(0 -8.57)"/><path class="cls-10" d="M106.63,192.41l1.87,4.32h0c.06,0,1-.94,2.19-4.26h0c.07,0,3-.45,3.59-.68.32-.13-4-2.17-4-2.2h0l-.44-2.4h0c-.1.12-1.71,2.13-1.77,1.71l-3.81-2.26h0l2,3.45h0a12.66,12.66,0,0,0-1.64,1.18,21.9,21.9,0,0,1-2.47.73h0c.05.07.81.91,4.49.38Z" transform="translate(0 -8.57)"/></svg>